<svg width="18.333374" height="18.333496" viewBox="0 0 18.3334 18.3335" fill="none" xmlns="http://www.w3.org/2000/svg" xmlns:xlink="http://www.w3.org/1999/xlink">
	<desc>
			Created with Pixso.
	</desc>
	<defs/>
	<path id="Icon" d="M9.83 5.83C10.76 5.83 11.23 5.83 11.59 6.01C11.9 6.17 12.15 6.42 12.31 6.74C12.5 7.1 12.5 7.56 12.5 8.5L12.5 14.83C12.5 15.76 12.5 16.23 12.31 16.59C12.15 16.9 11.9 17.15 11.59 17.31C11.23 17.5 10.76 17.5 9.83 17.5L3.5 17.5C2.56 17.5 2.09 17.5 1.74 17.31C1.42 17.15 1.17 16.9 1.01 16.59C0.83 16.23 0.83 15.76 0.83 14.83L0.83 8.5C0.83 7.56 0.83 7.1 1.01 6.74C1.17 6.42 1.42 6.17 1.74 6.01C2.09 5.83 2.56 5.83 3.5 5.83L9.83 5.83ZM5.83 5.83L5.83 3.5C5.83 2.56 5.83 2.1 6.01 1.74C6.17 1.42 6.42 1.17 6.74 1.01C7.09 0.83 7.56 0.83 8.5 0.83L14.83 0.83C15.76 0.83 16.23 0.83 16.59 1.01C16.9 1.17 17.15 1.42 17.31 1.74C17.5 2.1 17.5 2.56 17.5 3.5L17.5 9.83C17.5 10.76 17.5 11.23 17.31 11.59C17.15 11.9 16.9 12.15 16.59 12.31C16.23 12.5 15.76 12.5 14.83 12.5L12.5 12.5" stroke="#FFFFFF" stroke-opacity="1.000000" stroke-width="1.666667" stroke-linejoin="round" stroke-linecap="round"/>
</svg>
