<svg width="18.000000" height="18.000000" viewBox="0 0 18 18" fill="none" xmlns="http://www.w3.org/2000/svg" xmlns:xlink="http://www.w3.org/1999/xlink">
	<desc>
			Created with Pixso.
	</desc>
	<defs/>
	<path id="Icon" d="M6.33 1L11.66 1M1 3.66L17 3.66M15.22 3.66L14.59 13.01C14.5 14.41 14.45 15.12 14.15 15.65C13.88 16.12 13.48 16.49 13 16.73C12.45 17 11.74 17 10.34 17L7.65 17C6.25 17 5.54 17 4.99 16.73C4.51 16.49 4.11 16.12 3.84 15.65C3.54 15.12 3.49 14.41 3.4 13.01L2.77 3.66M7.22 7.66L7.22 12.11M10.77 7.66L10.77 12.11" stroke="#FFFFFF" stroke-opacity="1.000000" stroke-width="2.000000" stroke-linejoin="round"/>
</svg>
