<svg width="15.999996" height="12.192383" viewBox="0 0 16 12.1924" fill="none" xmlns="http://www.w3.org/2000/svg" xmlns:xlink="http://www.w3.org/1999/xlink">
	<desc>
			Created with Pixso.
	</desc>
	<defs/>
	<path id="Discord" d="M13.56 1.01C15.36 3.68 16.26 6.68 15.93 10.13C15.93 10.13 15.93 10.16 15.9 10.16C14.7 11.06 13.34 11.74 11.9 12.18C11.87 12.2 11.87 12.18 11.85 12.18C11.55 11.74 11.27 11.3 11.03 10.84C11.03 10.81 11.03 10.81 11.03 10.79L11.06 10.76C11.49 10.6 11.9 10.41 12.31 10.16C12.31 10.16 12.34 10.16 12.34 10.13C12.34 10.11 12.34 10.11 12.31 10.08C12.23 10.02 12.15 9.97 12.06 9.89C12.04 9.89 12.04 9.89 12.01 9.89C9.42 11.09 6.59 11.09 3.98 9.89C3.95 9.89 3.92 9.89 3.92 9.89C3.84 9.97 3.76 10.02 3.68 10.08C3.65 10.11 3.65 10.11 3.65 10.13C3.65 10.16 3.65 10.16 3.68 10.16C4.06 10.41 4.5 10.6 4.93 10.76C4.93 10.76 4.93 10.79 4.96 10.79C4.96 10.81 4.96 10.81 4.96 10.84C4.71 11.3 4.44 11.74 4.14 12.18C4.11 12.18 4.09 12.2 4.09 12.18C2.64 11.74 1.28 11.06 0.09 10.16C0.06 10.16 0.06 10.13 0.06 10.13C-0.21 7.14 0.36 4.12 2.43 1.01C2.43 1.01 2.43 1.01 2.45 1.01C3.49 0.52 4.58 0.2 5.69 0.01C5.72 -0.02 5.75 0.01 5.75 0.01C5.91 0.28 6.05 0.58 6.16 0.85C7.38 0.66 8.61 0.66 9.83 0.85C9.94 0.58 10.08 0.28 10.24 0.01C10.24 0.01 10.27 -0.02 10.29 0.01C11.41 0.2 12.5 0.52 13.53 1.01C13.56 1.01 13.56 1.01 13.56 1.01ZM5.34 8.31C6.13 8.31 6.78 7.58 6.78 6.7C6.78 5.81 6.16 5.1 5.34 5.1C4.55 5.1 3.9 5.81 3.9 6.7C3.9 7.58 4.55 8.31 5.34 8.31ZM10.65 8.31C11.46 8.31 12.09 7.58 12.09 6.7C12.12 5.81 11.46 5.1 10.65 5.1C9.86 5.1 9.23 5.81 9.23 6.7C9.23 7.58 9.86 8.31 10.65 8.31Z" fill="#FFFFFF" fill-opacity="1.000000" fill-rule="nonzero"/>
</svg>
