<svg width="24.000000" height="24.000000" viewBox="0 0 24 24" fill="none" xmlns="http://www.w3.org/2000/svg" xmlns:xlink="http://www.w3.org/1999/xlink">
	<desc>
			Created with Pixso.
	</desc>
	<defs>
		<clipPath id="clip2_633">
			<rect id="Layer_1" rx="-0.030173" width="23.939653" height="23.939653" transform="translate(0.030173 0.030173)" fill="white" fill-opacity="0"/>
		</clipPath>
		<linearGradient x1="21.778196" y1="0.739900" x2="8.522017" y2="26.130833" id="paint_linear_2_634_0" gradientUnits="userSpaceOnUse">
			<stop stop-color="#00FFA3"/>
			<stop offset="1.000000" stop-color="#DC1FFF"/>
		</linearGradient>
		<linearGradient x1="15.981874" y1="-2.286478" x2="2.725693" y2="23.104450" id="paint_linear_2_635_0" gradientUnits="userSpaceOnUse">
			<stop stop-color="#00FFA3"/>
			<stop offset="1.000000" stop-color="#DC1FFF"/>
		</linearGradient>
		<linearGradient x1="18.861584" y1="-0.782831" x2="5.605404" y2="24.608103" id="paint_linear_2_636_0" gradientUnits="userSpaceOnUse">
			<stop stop-color="#00FFA3"/>
			<stop offset="1.000000" stop-color="#DC1FFF"/>
		</linearGradient>
	</defs>
	<rect id="Layer_1" rx="-0.030173" width="23.939653" height="23.939653" transform="translate(0.030173 0.030173)" fill="#FFFFFF" fill-opacity="0"/>
	<g clip-path="url(#clip2_633)">
		<path id="Vector" d="M3.89 17.35C4.04 17.21 4.24 17.12 4.45 17.12L23.6 17.12C23.95 17.12 24.13 17.54 23.88 17.79L20.1 21.58C19.95 21.72 19.75 21.81 19.54 21.81L0.39 21.81C0.04 21.81 -0.14 21.38 0.11 21.14L3.89 17.35Z" fill="url(#paint_linear_2_634_0)" fill-opacity="1.000000" fill-rule="nonzero"/>
		<path id="Vector" d="M3.89 3.22C4.04 3.08 4.24 3 4.45 3L23.6 3C23.95 3 24.13 3.42 23.88 3.66L20.1 7.45C19.95 7.59 19.75 7.68 19.54 7.68L0.39 7.68C0.04 7.68 -0.14 7.26 0.11 7.01L3.89 3.22Z" fill="url(#paint_linear_2_635_0)" fill-opacity="1.000000" fill-rule="nonzero"/>
		<path id="Vector" d="M20.1 10.24C19.95 10.1 19.75 10.01 19.54 10.01L0.39 10.01C0.04 10.01 -0.14 10.44 0.11 10.68L3.89 14.47C4.04 14.61 4.24 14.7 4.45 14.7L23.6 14.7C23.95 14.7 24.13 14.27 23.88 14.03L20.1 10.24Z" fill="url(#paint_linear_2_636_0)" fill-opacity="1.000000" fill-rule="nonzero"/>
	</g>
</svg>
