<svg width="13.333374" height="18.333496" viewBox="0 0 13.3334 18.3335" fill="none" xmlns="http://www.w3.org/2000/svg" xmlns:xlink="http://www.w3.org/1999/xlink">
	<desc>
			Created with Pixso.
	</desc>
	<defs/>
	<path id="Icon" d="M11.16 0.83C11.63 0.83 11.86 0.83 12.04 0.92C12.2 1 12.32 1.13 12.4 1.28C12.5 1.46 12.5 1.7 12.5 2.16L12.5 3.89C12.5 4.3 12.5 4.5 12.45 4.69C12.41 4.86 12.34 5.03 12.25 5.18C12.15 5.34 12 5.49 11.71 5.78L9.27 8.22C8.94 8.55 8.78 8.71 8.71 8.9C8.66 9.07 8.66 9.25 8.71 9.42C8.78 9.61 8.94 9.77 9.27 10.1L11.71 12.55C12 12.84 12.15 12.98 12.25 13.15C12.34 13.3 12.41 13.46 12.45 13.63C12.5 13.82 12.5 14.03 12.5 14.43L12.5 16.16C12.5 16.63 12.5 16.86 12.4 17.04C12.32 17.2 12.2 17.32 12.04 17.4C11.86 17.5 11.63 17.5 11.16 17.5L2.16 17.5C1.69 17.5 1.46 17.5 1.28 17.4C1.13 17.32 1 17.2 0.92 17.04C0.83 16.86 0.83 16.63 0.83 16.16L0.83 14.43C0.83 14.03 0.83 13.82 0.87 13.63C0.92 13.46 0.98 13.3 1.07 13.15C1.18 12.98 1.32 12.84 1.61 12.55L4.05 10.1C4.38 9.77 4.55 9.61 4.61 9.42C4.66 9.25 4.66 9.07 4.61 8.9C4.55 8.71 4.38 8.55 4.05 8.22L1.61 5.78C1.32 5.49 1.18 5.34 1.07 5.18C0.98 5.03 0.92 4.86 0.87 4.69C0.83 4.5 0.83 4.3 0.83 3.89L0.83 2.16C0.83 1.7 0.83 1.46 0.92 1.28C1 1.13 1.13 1 1.28 0.92C1.46 0.83 1.69 0.83 2.16 0.83L11.16 0.83ZM4.16 14.58L9.16 14.58" stroke="#FFFFFF" stroke-opacity="1.000000" stroke-width="1.666667" stroke-linejoin="round" stroke-linecap="round"/>
</svg>
