<svg width="18.000000" height="18.382812" viewBox="0 0 18 18.3828" fill="none" xmlns="http://www.w3.org/2000/svg" xmlns:xlink="http://www.w3.org/1999/xlink">
	<desc>
			Created with Pixso.
	</desc>
	<defs/>
	<path id="Icon" d="M1 12.04L1 7.64C1 6.98 1 6.65 1.1 6.36C1.19 6.11 1.34 5.88 1.53 5.69C1.75 5.47 2.05 5.34 2.65 5.06L10.53 1.42C11.2 1.11 11.54 0.96 11.81 1C12.05 1.04 12.26 1.18 12.39 1.38C12.55 1.6 12.55 1.97 12.55 2.71L12.55 5.82M17 14.53C17 15.53 17 16.03 16.8 16.41C16.63 16.74 16.36 17.01 16.02 17.18C15.64 17.38 15.15 17.38 14.15 17.38L3.84 17.38C2.84 17.38 2.35 17.38 1.97 17.18C1.63 17.01 1.36 16.74 1.19 16.41C1 16.03 1 15.53 1 14.53L1 8.67C1 7.67 1 7.17 1.19 6.79C1.36 6.46 1.63 6.19 1.97 6.02C2.35 5.82 2.84 5.82 3.84 5.82L14.15 5.82C15.15 5.82 15.64 5.82 16.02 6.02C16.36 6.19 16.63 6.46 16.8 6.79C17 7.17 17 7.67 17 8.67L17 14.53ZM13 11.6L13 11.6M13 12.04C12.75 12.04 12.55 11.85 12.55 11.6C12.55 11.35 12.75 11.16 13 11.16C13.24 11.16 13.44 11.35 13.44 11.6C13.44 11.85 13.24 12.04 13 12.04Z" stroke="#FFFFFF" stroke-opacity="1.000000" stroke-width="2.000000" stroke-linejoin="round"/>
</svg>
